<?xml version="1.0" encoding="utf-8"?>
<!-- Generator: Adobe Illustrator 24.0.1, SVG Export Plug-In . SVG Version: 6.00 Build 0)  -->
<svg version="1.1" id="Calque_1" xmlns="http://www.w3.org/2000/svg" xmlns:xlink="http://www.w3.org/1999/xlink" x="0px" y="0px"
	 viewBox="0 0 23 23" style="enable-background:new 0 0 23 23;" xml:space="preserve">
<style type="text/css">
	.st0{fill:#006B77;}
	.st1{fill:#FFFFFF;}
</style>
<circle class="st0" cx="11.5" cy="11.5" r="11.5"/>
<g transform="translate(0 0)">
	<g transform="translate(0 0)">
		<path class="st1" d="M18.2,7.2c-0.5,0.2-1,0.4-1.6,0.4c0.6-0.4,1-0.9,1.2-1.6c-0.5,0.3-1.1,0.6-1.7,0.7c-0.5-0.6-1.2-0.9-2-0.9
			c-1.5,0-2.8,1.3-2.7,2.9c0,0.2,0,0.4,0.1,0.7c-2.2-0.1-4.3-1.2-5.7-3C5.5,6.8,5.4,7.3,5.4,7.8c0,0.9,0.5,1.8,1.2,2.4
			c-0.4,0-0.9-0.1-1.2-0.4v0c0,1.3,0.9,2.5,2.2,2.8c-0.2,0.1-0.5,0.1-0.7,0.1c-0.2,0-0.3,0-0.5-0.1c0.3,1.1,1.4,1.9,2.6,2
			c-1,0.8-2.2,1.2-3.4,1.2c-0.2,0-0.4,0-0.7,0c1.2,0.8,2.7,1.3,4.2,1.3c4.4-0.1,7.9-3.7,7.8-8c0,0,0-0.1,0-0.1l0-0.4
			C17.4,8.3,17.8,7.8,18.2,7.2z"/>
	</g>
</g>
</svg>
