<?xml version="1.0" encoding="utf-8"?>
<!-- Generator: Adobe Illustrator 24.0.1, SVG Export Plug-In . SVG Version: 6.00 Build 0)  -->
<svg version="1.1" id="Calque_1" xmlns="http://www.w3.org/2000/svg" xmlns:xlink="http://www.w3.org/1999/xlink" x="0px" y="0px"
	 viewBox="0 0 23 23" style="enable-background:new 0 0 23 23;" xml:space="preserve">
<style type="text/css">
	.st0{fill:#006B77;}
	.st1{fill:#FFFFFF;}
</style>
<circle class="st0" cx="11.5" cy="11.5" r="11.5"/>
<path class="st1" d="M14.6,4.7H8.5c-2.1,0-3.8,1.7-3.8,3.8v6.1c0,2.1,1.7,3.8,3.8,3.8h6.1c2.1,0,3.8-1.7,3.8-3.8V8.5
	C18.4,6.4,16.7,4.7,14.6,4.7z M17.1,14.6c0,1.4-1.1,2.6-2.6,2.6H8.5c-1.4,0-2.6-1.1-2.6-2.6V8.5C5.9,7,7,5.9,8.5,5.9h6.1
	c1.4,0,2.6,1.1,2.6,2.6V14.6z"/>
<path class="st1" d="M11.5,8C9.6,8,8,9.6,8,11.5c0,1.9,1.6,3.5,3.5,3.5c1.9,0,3.5-1.6,3.5-3.5C15,9.6,13.5,8,11.5,8z M11.5,13.8
	c-1.3,0-2.3-1-2.3-2.3c0-1.3,1-2.3,2.3-2.3s2.3,1,2.3,2.3c0,0,0,0,0,0C13.8,12.8,12.8,13.8,11.5,13.8z"/>
<path class="st1" d="M15.2,7c-0.5,0-0.9,0.4-0.9,0.9c0,0.5,0.4,0.9,0.9,0.9c0.5,0,0.9-0.4,0.9-0.9c0-0.2-0.1-0.5-0.3-0.6
	C15.7,7.1,15.4,7,15.2,7z"/>
</svg>
